<mxfile host="app.diagrams.net" agent="Mozilla/5.0 (X11; Ubuntu; Linux x86_64; rv:131.0) Gecko/20100101 Firefox/131.0" version="25.0.3">
  <diagram name="Page-1" id="0-mNX2b_wTO7DSnVOMlm">
    <mxGraphModel dx="548" dy="301" grid="1" gridSize="10" guides="1" tooltips="1" connect="1" arrows="1" fold="1" page="1" pageScale="1" pageWidth="850" pageHeight="1100" math="0" shadow="0">
      <root>
        <mxCell id="0" />
        <mxCell id="1" parent="0" />
        <mxCell id="lELbUMTiAjcGN2_8T0V1-12" value="" style="edgeStyle=orthogonalEdgeStyle;rounded=0;orthogonalLoop=1;jettySize=auto;html=1;endArrow=none;endFill=0;" parent="1" source="lELbUMTiAjcGN2_8T0V1-3" target="lELbUMTiAjcGN2_8T0V1-7" edge="1">
          <mxGeometry relative="1" as="geometry" />
        </mxCell>
        <mxCell id="lELbUMTiAjcGN2_8T0V1-3" value="&lt;font face=&quot;Garamond&quot; style=&quot;font-size: 20px;&quot;&gt;H&lt;/font&gt;" style="rounded=0;whiteSpace=wrap;html=1;" parent="1" vertex="1">
          <mxGeometry x="320" y="160" width="40" height="40" as="geometry" />
        </mxCell>
        <mxCell id="lELbUMTiAjcGN2_8T0V1-14" style="edgeStyle=orthogonalEdgeStyle;rounded=0;orthogonalLoop=1;jettySize=auto;html=1;entryX=0;entryY=0.5;entryDx=0;entryDy=0;endArrow=none;endFill=0;" parent="1" source="lELbUMTiAjcGN2_8T0V1-4" target="lELbUMTiAjcGN2_8T0V1-8" edge="1">
          <mxGeometry relative="1" as="geometry" />
        </mxCell>
        <mxCell id="lELbUMTiAjcGN2_8T0V1-4" value="&lt;font face=&quot;Garamond&quot; style=&quot;font-size: 20px;&quot;&gt;H&lt;/font&gt;" style="rounded=0;whiteSpace=wrap;html=1;" parent="1" vertex="1">
          <mxGeometry x="320" y="240" width="40" height="40" as="geometry" />
        </mxCell>
        <mxCell id="lELbUMTiAjcGN2_8T0V1-5" value="&lt;font face=&quot;Verdana&quot; style=&quot;font-size: 38px;&quot;&gt;&lt;i&gt;U&lt;sub&gt;f&lt;/sub&gt;&lt;/i&gt;&lt;/font&gt;" style="rounded=0;whiteSpace=wrap;html=1;" parent="1" vertex="1">
          <mxGeometry x="400" y="140" width="160" height="160" as="geometry" />
        </mxCell>
        <mxCell id="lELbUMTiAjcGN2_8T0V1-7" value="&lt;font face=&quot;Verdana&quot;&gt;&lt;i&gt;y&lt;/i&gt;&lt;/font&gt;" style="text;html=1;align=center;verticalAlign=middle;whiteSpace=wrap;rounded=0;fontSize=14;" parent="1" vertex="1">
          <mxGeometry x="400" y="170" width="30" height="20" as="geometry" />
        </mxCell>
        <mxCell id="lELbUMTiAjcGN2_8T0V1-8" value="&lt;font face=&quot;Verdana&quot;&gt;&lt;i&gt;x&lt;/i&gt;&lt;/font&gt;" style="text;html=1;align=center;verticalAlign=middle;whiteSpace=wrap;rounded=0;fontSize=14;" parent="1" vertex="1">
          <mxGeometry x="400" y="250" width="30" height="20" as="geometry" />
        </mxCell>
        <mxCell id="lELbUMTiAjcGN2_8T0V1-22" style="edgeStyle=orthogonalEdgeStyle;rounded=0;orthogonalLoop=1;jettySize=auto;html=1;entryX=0;entryY=0.5;entryDx=0;entryDy=0;endArrow=none;endFill=0;" parent="1" source="lELbUMTiAjcGN2_8T0V1-9" target="lELbUMTiAjcGN2_8T0V1-21" edge="1">
          <mxGeometry relative="1" as="geometry" />
        </mxCell>
        <mxCell id="lELbUMTiAjcGN2_8T0V1-9" value="&lt;font face=&quot;Verdana&quot;&gt;&lt;i&gt;&lt;font data-font-src=&quot;https://fonts.googleapis.com/css?family=Cambria&quot;&gt;y&lt;/font&gt;&lt;/i&gt;&lt;font data-font-src=&quot;https://fonts.googleapis.com/css?family=Cambria&quot;&gt;⊕&lt;/font&gt;&lt;i&gt;&lt;font data-font-src=&quot;https://fonts.googleapis.com/css?family=Cambria&quot;&gt;f(x)&lt;/font&gt;&lt;/i&gt;&lt;/font&gt;" style="text;html=1;align=center;verticalAlign=middle;whiteSpace=wrap;rounded=0;fontSize=14;" parent="1" vertex="1">
          <mxGeometry x="510" y="170" width="50" height="20" as="geometry" />
        </mxCell>
        <mxCell id="lELbUMTiAjcGN2_8T0V1-20" style="edgeStyle=orthogonalEdgeStyle;rounded=0;orthogonalLoop=1;jettySize=auto;html=1;endArrow=none;endFill=0;" parent="1" source="lELbUMTiAjcGN2_8T0V1-10" target="lELbUMTiAjcGN2_8T0V1-19" edge="1">
          <mxGeometry relative="1" as="geometry" />
        </mxCell>
        <mxCell id="lELbUMTiAjcGN2_8T0V1-10" value="&lt;i&gt;&lt;font face=&quot;Verdana&quot;&gt;x&lt;/font&gt;&lt;/i&gt;" style="text;html=1;align=center;verticalAlign=middle;whiteSpace=wrap;rounded=0;fontSize=14;" parent="1" vertex="1">
          <mxGeometry x="530" y="250" width="30" height="20" as="geometry" />
        </mxCell>
        <mxCell id="lELbUMTiAjcGN2_8T0V1-35" style="edgeStyle=orthogonalEdgeStyle;rounded=0;orthogonalLoop=1;jettySize=auto;html=1;entryX=0;entryY=0.5;entryDx=0;entryDy=0;endArrow=none;endFill=0;" parent="1" source="lELbUMTiAjcGN2_8T0V1-15" target="lELbUMTiAjcGN2_8T0V1-3" edge="1">
          <mxGeometry relative="1" as="geometry" />
        </mxCell>
        <mxCell id="lELbUMTiAjcGN2_8T0V1-15" value="&lt;font style=&quot;font-size: 18px;&quot;&gt;&lt;i&gt;&lt;font face=&quot;Verdana&quot;&gt;|&lt;/font&gt;&lt;/i&gt;&lt;font face=&quot;Verdana&quot;&gt;1&lt;/font&gt;&lt;font&gt;&lt;span class=&quot;mclose&quot;&gt;⟩&lt;/span&gt;&lt;/font&gt;&lt;font&gt;&lt;span class=&quot;mspace&quot;&gt;&lt;/span&gt;&lt;/font&gt;&lt;/font&gt;" style="text;html=1;align=center;verticalAlign=middle;whiteSpace=wrap;rounded=0;" parent="1" vertex="1">
          <mxGeometry x="250" y="170" width="30" height="20" as="geometry" />
        </mxCell>
        <mxCell id="lELbUMTiAjcGN2_8T0V1-36" value="" style="edgeStyle=orthogonalEdgeStyle;rounded=0;orthogonalLoop=1;jettySize=auto;html=1;endArrow=none;endFill=0;" parent="1" source="lELbUMTiAjcGN2_8T0V1-16" target="lELbUMTiAjcGN2_8T0V1-4" edge="1">
          <mxGeometry relative="1" as="geometry" />
        </mxCell>
        <mxCell id="lELbUMTiAjcGN2_8T0V1-16" value="&lt;p&gt;&lt;font style=&quot;font-size: 18px;&quot;&gt;&lt;i&gt;&lt;font face=&quot;Verdana&quot;&gt;|&lt;/font&gt;&lt;/i&gt;0&lt;font&gt;&lt;span class=&quot;mclose&quot;&gt;⟩&lt;/span&gt;&lt;/font&gt;&lt;font&gt;&lt;span class=&quot;mspace&quot;&gt;&lt;/span&gt;&lt;/font&gt;&lt;/font&gt;&lt;font style=&quot;font-size: 13px;&quot;&gt;&lt;span class=&quot;mbin&quot;&gt;&lt;/span&gt;&lt;/font&gt;&lt;/p&gt;" style="text;html=1;align=center;verticalAlign=middle;whiteSpace=wrap;rounded=0;" parent="1" vertex="1">
          <mxGeometry x="250" y="245" width="30" height="30" as="geometry" />
        </mxCell>
        <mxCell id="lELbUMTiAjcGN2_8T0V1-43" style="edgeStyle=orthogonalEdgeStyle;rounded=0;orthogonalLoop=1;jettySize=auto;html=1;entryX=0;entryY=0.5;entryDx=0;entryDy=0;endArrow=none;endFill=0;" parent="1" source="lELbUMTiAjcGN2_8T0V1-19" target="lELbUMTiAjcGN2_8T0V1-37" edge="1">
          <mxGeometry relative="1" as="geometry" />
        </mxCell>
        <mxCell id="lELbUMTiAjcGN2_8T0V1-19" value="&lt;font face=&quot;Garamond&quot; style=&quot;font-size: 20px;&quot;&gt;H&lt;/font&gt;" style="rounded=0;whiteSpace=wrap;html=1;" parent="1" vertex="1">
          <mxGeometry x="600" y="240" width="40" height="40" as="geometry" />
        </mxCell>
        <mxCell id="lELbUMTiAjcGN2_8T0V1-32" style="edgeStyle=orthogonalEdgeStyle;rounded=0;orthogonalLoop=1;jettySize=auto;html=1;endArrow=none;endFill=0;" parent="1" source="lELbUMTiAjcGN2_8T0V1-21" edge="1">
          <mxGeometry relative="1" as="geometry">
            <mxPoint x="740" y="180" as="targetPoint" />
          </mxGeometry>
        </mxCell>
        <mxCell id="lELbUMTiAjcGN2_8T0V1-21" value="&lt;font face=&quot;Garamond&quot; style=&quot;font-size: 20px;&quot;&gt;H&lt;/font&gt;" style="rounded=0;whiteSpace=wrap;html=1;" parent="1" vertex="1">
          <mxGeometry x="600" y="160" width="40" height="40" as="geometry" />
        </mxCell>
        <mxCell id="lELbUMTiAjcGN2_8T0V1-27" value="&lt;font style=&quot;font-size: 15px;&quot; face=&quot;Verdana&quot;&gt;|&lt;/font&gt;&lt;font style=&quot;font-size: 15px;&quot;&gt;&lt;span class=&quot;mord mathnormal&quot;&gt;&lt;font face=&quot;Verdana&quot;&gt;&lt;i&gt;ψ&lt;sub&gt;0&lt;/sub&gt;&lt;/i&gt;&lt;/font&gt;&lt;/span&gt;&lt;span class=&quot;mclose&quot;&gt;⟩&lt;/span&gt;&lt;/font&gt;&lt;font style=&quot;font-size: 14px;&quot;&gt;&lt;span class=&quot;mspace&quot;&gt;&lt;/span&gt;&lt;/font&gt;&lt;font style=&quot;font-size: 13px;&quot;&gt;&lt;span class=&quot;mbin&quot;&gt;&lt;/span&gt;&lt;/font&gt;" style="text;html=1;align=center;verticalAlign=middle;whiteSpace=wrap;rounded=0;" parent="1" vertex="1">
          <mxGeometry x="280" y="300" width="40" height="30" as="geometry" />
        </mxCell>
        <mxCell id="lELbUMTiAjcGN2_8T0V1-28" value="&lt;font style=&quot;font-size: 15px;&quot; face=&quot;Verdana&quot;&gt;|&lt;/font&gt;&lt;font style=&quot;font-size: 15px;&quot;&gt;&lt;span class=&quot;mord mathnormal&quot;&gt;&lt;font face=&quot;Verdana&quot;&gt;&lt;i&gt;ψ&lt;sub&gt;1&lt;/sub&gt;&lt;/i&gt;&lt;/font&gt;&lt;/span&gt;&lt;span class=&quot;mclose&quot;&gt;⟩&lt;/span&gt;&lt;/font&gt;&lt;font style=&quot;font-size: 14px;&quot;&gt;&lt;span class=&quot;mspace&quot;&gt;&lt;/span&gt;&lt;/font&gt;&lt;font style=&quot;font-size: 13px;&quot;&gt;&lt;span class=&quot;mbin&quot;&gt;&lt;/span&gt;&lt;/font&gt;" style="text;html=1;align=center;verticalAlign=middle;whiteSpace=wrap;rounded=0;" parent="1" vertex="1">
          <mxGeometry x="360" y="300" width="40" height="30" as="geometry" />
        </mxCell>
        <mxCell id="lELbUMTiAjcGN2_8T0V1-29" value="&lt;font style=&quot;font-size: 15px;&quot; face=&quot;Verdana&quot;&gt;|&lt;/font&gt;&lt;font style=&quot;font-size: 15px;&quot;&gt;&lt;span class=&quot;mord mathnormal&quot;&gt;&lt;font face=&quot;Verdana&quot;&gt;&lt;i&gt;ψ&lt;sub&gt;2&lt;/sub&gt;&lt;/i&gt;&lt;/font&gt;&lt;/span&gt;&lt;span class=&quot;mclose&quot;&gt;⟩&lt;/span&gt;&lt;/font&gt;&lt;font style=&quot;font-size: 14px;&quot;&gt;&lt;span class=&quot;mspace&quot;&gt;&lt;/span&gt;&lt;/font&gt;&lt;font style=&quot;font-size: 13px;&quot;&gt;&lt;span class=&quot;mbin&quot;&gt;&lt;/span&gt;&lt;/font&gt;" style="text;html=1;align=center;verticalAlign=middle;whiteSpace=wrap;rounded=0;" parent="1" vertex="1">
          <mxGeometry x="560" y="300" width="40" height="30" as="geometry" />
        </mxCell>
        <mxCell id="lELbUMTiAjcGN2_8T0V1-30" value="&lt;font style=&quot;font-size: 15px;&quot; face=&quot;Verdana&quot;&gt;|&lt;/font&gt;&lt;font style=&quot;font-size: 15px;&quot;&gt;&lt;span class=&quot;mord mathnormal&quot;&gt;&lt;font face=&quot;Verdana&quot;&gt;&lt;i&gt;ψ&lt;sub&gt;3&lt;/sub&gt;&lt;/i&gt;&lt;/font&gt;&lt;/span&gt;&lt;span class=&quot;mclose&quot;&gt;⟩&lt;/span&gt;&lt;/font&gt;&lt;font style=&quot;font-size: 14px;&quot;&gt;&lt;span class=&quot;mspace&quot;&gt;&lt;/span&gt;&lt;/font&gt;&lt;font style=&quot;font-size: 13px;&quot;&gt;&lt;span class=&quot;mbin&quot;&gt;&lt;/span&gt;&lt;/font&gt;" style="text;html=1;align=center;verticalAlign=middle;whiteSpace=wrap;rounded=0;" parent="1" vertex="1">
          <mxGeometry x="640" y="300" width="40" height="30" as="geometry" />
        </mxCell>
        <mxCell id="lELbUMTiAjcGN2_8T0V1-55" style="edgeStyle=orthogonalEdgeStyle;rounded=0;orthogonalLoop=1;jettySize=auto;html=1;entryX=0;entryY=0.5;entryDx=0;entryDy=0;" parent="1" source="lELbUMTiAjcGN2_8T0V1-34" target="lELbUMTiAjcGN2_8T0V1-47" edge="1">
          <mxGeometry relative="1" as="geometry" />
        </mxCell>
        <mxCell id="lELbUMTiAjcGN2_8T0V1-34" value="&lt;font style=&quot;font-size: 18px;&quot;&gt;&lt;i&gt;&lt;font face=&quot;Verdana&quot;&gt;|&lt;/font&gt;&lt;/i&gt;&lt;font face=&quot;Verdana&quot;&gt;&lt;i&gt;x&lt;/i&gt;&lt;/font&gt;&lt;font&gt;&lt;span class=&quot;mclose&quot;&gt;⟩&lt;/span&gt;&lt;/font&gt;&lt;font&gt;&lt;span class=&quot;mspace&quot;&gt;&lt;/span&gt;&lt;/font&gt;&lt;/font&gt;" style="text;html=1;align=center;verticalAlign=middle;whiteSpace=wrap;rounded=0;" parent="1" vertex="1">
          <mxGeometry x="210" y="500" width="30" height="20" as="geometry" />
        </mxCell>
        <mxCell id="lELbUMTiAjcGN2_8T0V1-42" value="" style="group" parent="1" vertex="1" connectable="0">
          <mxGeometry x="680" y="240" width="40" height="40" as="geometry" />
        </mxCell>
        <mxCell id="lELbUMTiAjcGN2_8T0V1-44" style="edgeStyle=orthogonalEdgeStyle;rounded=0;orthogonalLoop=1;jettySize=auto;html=1;endArrow=none;endFill=0;" parent="lELbUMTiAjcGN2_8T0V1-42" source="lELbUMTiAjcGN2_8T0V1-37" edge="1">
          <mxGeometry relative="1" as="geometry">
            <mxPoint x="60" y="20" as="targetPoint" />
          </mxGeometry>
        </mxCell>
        <mxCell id="lELbUMTiAjcGN2_8T0V1-37" value="" style="rounded=0;whiteSpace=wrap;html=1;" parent="lELbUMTiAjcGN2_8T0V1-42" vertex="1">
          <mxGeometry width="40" height="40" as="geometry" />
        </mxCell>
        <mxCell id="lELbUMTiAjcGN2_8T0V1-40" value="" style="endArrow=none;html=1;rounded=0;curved=1;endFill=0;" parent="lELbUMTiAjcGN2_8T0V1-42" edge="1">
          <mxGeometry width="50" height="50" relative="1" as="geometry">
            <mxPoint x="5" y="25" as="sourcePoint" />
            <mxPoint x="35" y="25" as="targetPoint" />
            <Array as="points">
              <mxPoint x="5" y="15" />
              <mxPoint x="20" y="10" />
              <mxPoint x="35" y="15" />
            </Array>
          </mxGeometry>
        </mxCell>
        <mxCell id="lELbUMTiAjcGN2_8T0V1-41" value="" style="endArrow=openThin;html=1;rounded=0;endFill=0;" parent="lELbUMTiAjcGN2_8T0V1-42" edge="1">
          <mxGeometry width="50" height="50" relative="1" as="geometry">
            <mxPoint x="20" y="25" as="sourcePoint" />
            <mxPoint x="30" y="15" as="targetPoint" />
          </mxGeometry>
        </mxCell>
        <mxCell id="lELbUMTiAjcGN2_8T0V1-50" value="" style="group" parent="1" vertex="1" connectable="0">
          <mxGeometry x="280" y="390" width="160" height="160" as="geometry" />
        </mxCell>
        <mxCell id="lELbUMTiAjcGN2_8T0V1-45" value="&lt;font face=&quot;Verdana&quot; style=&quot;font-size: 38px;&quot;&gt;&lt;i&gt;U&lt;sub&gt;f&lt;/sub&gt;&lt;/i&gt;&lt;/font&gt;" style="rounded=0;whiteSpace=wrap;html=1;" parent="lELbUMTiAjcGN2_8T0V1-50" vertex="1">
          <mxGeometry width="160" height="160" as="geometry" />
        </mxCell>
        <mxCell id="lELbUMTiAjcGN2_8T0V1-46" value="&lt;font face=&quot;Verdana&quot;&gt;&lt;i&gt;y&lt;/i&gt;&lt;/font&gt;" style="text;html=1;align=center;verticalAlign=middle;whiteSpace=wrap;rounded=0;fontSize=14;" parent="lELbUMTiAjcGN2_8T0V1-50" vertex="1">
          <mxGeometry y="30" width="30" height="20" as="geometry" />
        </mxCell>
        <mxCell id="lELbUMTiAjcGN2_8T0V1-47" value="&lt;font face=&quot;Verdana&quot;&gt;&lt;i&gt;x&lt;/i&gt;&lt;/font&gt;" style="text;html=1;align=center;verticalAlign=middle;whiteSpace=wrap;rounded=0;fontSize=14;" parent="lELbUMTiAjcGN2_8T0V1-50" vertex="1">
          <mxGeometry y="110" width="30" height="20" as="geometry" />
        </mxCell>
        <mxCell id="lELbUMTiAjcGN2_8T0V1-57" style="edgeStyle=orthogonalEdgeStyle;rounded=0;orthogonalLoop=1;jettySize=auto;html=1;" parent="lELbUMTiAjcGN2_8T0V1-50" source="lELbUMTiAjcGN2_8T0V1-48" edge="1">
          <mxGeometry relative="1" as="geometry">
            <mxPoint x="240" y="40" as="targetPoint" />
          </mxGeometry>
        </mxCell>
        <mxCell id="lELbUMTiAjcGN2_8T0V1-48" value="&lt;font face=&quot;Verdana&quot;&gt;&lt;i&gt;&lt;font data-font-src=&quot;https://fonts.googleapis.com/css?family=Cambria&quot;&gt;y&lt;/font&gt;&lt;/i&gt;&lt;font data-font-src=&quot;https://fonts.googleapis.com/css?family=Cambria&quot;&gt;⊕&lt;/font&gt;&lt;i&gt;&lt;font data-font-src=&quot;https://fonts.googleapis.com/css?family=Cambria&quot;&gt;f(x)&lt;/font&gt;&lt;/i&gt;&lt;/font&gt;" style="text;html=1;align=center;verticalAlign=middle;whiteSpace=wrap;rounded=0;fontSize=14;" parent="lELbUMTiAjcGN2_8T0V1-50" vertex="1">
          <mxGeometry x="110" y="30" width="50" height="20" as="geometry" />
        </mxCell>
        <mxCell id="lELbUMTiAjcGN2_8T0V1-56" style="edgeStyle=orthogonalEdgeStyle;rounded=0;orthogonalLoop=1;jettySize=auto;html=1;" parent="lELbUMTiAjcGN2_8T0V1-50" source="lELbUMTiAjcGN2_8T0V1-49" edge="1">
          <mxGeometry relative="1" as="geometry">
            <mxPoint x="240" y="120" as="targetPoint" />
          </mxGeometry>
        </mxCell>
        <mxCell id="lELbUMTiAjcGN2_8T0V1-49" value="&lt;i&gt;&lt;font face=&quot;Verdana&quot;&gt;x&lt;/font&gt;&lt;/i&gt;" style="text;html=1;align=center;verticalAlign=middle;whiteSpace=wrap;rounded=0;fontSize=14;" parent="lELbUMTiAjcGN2_8T0V1-50" vertex="1">
          <mxGeometry x="130" y="110" width="30" height="20" as="geometry" />
        </mxCell>
        <mxCell id="lELbUMTiAjcGN2_8T0V1-52" value="&lt;p&gt;&lt;font style=&quot;font-size: 18px;&quot;&gt;&lt;i&gt;&lt;font face=&quot;Verdana&quot;&gt;|&lt;/font&gt;&lt;/i&gt;0&lt;font&gt;&lt;span class=&quot;mclose&quot;&gt;⟩&lt;/span&gt;&lt;/font&gt;&lt;font&gt;&lt;span class=&quot;mspace&quot;&gt;&lt;/span&gt;&lt;/font&gt;&lt;/font&gt;&lt;font style=&quot;font-size: 13px;&quot;&gt;&lt;span class=&quot;mbin&quot;&gt;&lt;/span&gt;&lt;/font&gt;&lt;/p&gt;" style="text;html=1;align=center;verticalAlign=middle;whiteSpace=wrap;rounded=0;" parent="1" vertex="1">
          <mxGeometry x="250" y="245" width="30" height="30" as="geometry" />
        </mxCell>
        <mxCell id="lELbUMTiAjcGN2_8T0V1-54" style="edgeStyle=orthogonalEdgeStyle;rounded=0;orthogonalLoop=1;jettySize=auto;html=1;entryX=0;entryY=0.5;entryDx=0;entryDy=0;" parent="1" source="lELbUMTiAjcGN2_8T0V1-53" target="lELbUMTiAjcGN2_8T0V1-46" edge="1">
          <mxGeometry relative="1" as="geometry" />
        </mxCell>
        <mxCell id="lELbUMTiAjcGN2_8T0V1-53" value="&lt;p&gt;&lt;font style=&quot;font-size: 18px;&quot;&gt;&lt;i&gt;&lt;font face=&quot;Verdana&quot;&gt;|&lt;/font&gt;&lt;/i&gt;0&lt;font&gt;&lt;span class=&quot;mclose&quot;&gt;⟩&lt;/span&gt;&lt;/font&gt;&lt;font&gt;&lt;span class=&quot;mspace&quot;&gt;&lt;/span&gt;&lt;/font&gt;&lt;/font&gt;&lt;font style=&quot;font-size: 13px;&quot;&gt;&lt;span class=&quot;mbin&quot;&gt;&lt;/span&gt;&lt;/font&gt;&lt;/p&gt;" style="text;html=1;align=center;verticalAlign=middle;whiteSpace=wrap;rounded=0;" parent="1" vertex="1">
          <mxGeometry x="210" y="415" width="30" height="30" as="geometry" />
        </mxCell>
        <mxCell id="lELbUMTiAjcGN2_8T0V1-58" value="&lt;p&gt;&lt;font face=&quot;Verdana&quot; style=&quot;font-size: 18px;&quot;&gt;&lt;i&gt;|f(x)&lt;/i&gt;&lt;font&gt;&lt;span class=&quot;mclose&quot;&gt;⟩&lt;/span&gt;&lt;/font&gt;&lt;/font&gt;&lt;/p&gt;" style="text;html=1;align=center;verticalAlign=middle;whiteSpace=wrap;rounded=0;" parent="1" vertex="1">
          <mxGeometry x="455" y="400" width="50" height="30" as="geometry" />
        </mxCell>
        <mxCell id="lELbUMTiAjcGN2_8T0V1-59" value="&lt;p&gt;&lt;font face=&quot;Verdana&quot; style=&quot;font-size: 18px;&quot;&gt;&lt;i&gt;|x&lt;/i&gt;&lt;font&gt;&lt;span class=&quot;mclose&quot;&gt;⟩&lt;/span&gt;&lt;/font&gt;&lt;/font&gt;&lt;/p&gt;" style="text;html=1;align=center;verticalAlign=middle;whiteSpace=wrap;rounded=0;" parent="1" vertex="1">
          <mxGeometry x="455" y="480" width="50" height="30" as="geometry" />
        </mxCell>
        <mxCell id="3joSqUeFPJsV_tL1ElPJ-1" value="" style="endArrow=none;html=1;rounded=0;" edge="1" parent="1">
          <mxGeometry width="50" height="50" relative="1" as="geometry">
            <mxPoint x="160" y="680" as="sourcePoint" />
            <mxPoint x="240" y="680" as="targetPoint" />
          </mxGeometry>
        </mxCell>
        <mxCell id="3joSqUeFPJsV_tL1ElPJ-4" value="" style="endArrow=none;html=1;rounded=0;" edge="1" parent="1">
          <mxGeometry width="50" height="50" relative="1" as="geometry">
            <mxPoint x="160" y="720" as="sourcePoint" />
            <mxPoint x="240" y="720" as="targetPoint" />
          </mxGeometry>
        </mxCell>
        <mxCell id="3joSqUeFPJsV_tL1ElPJ-6" value="&lt;font style=&quot;font-size: 18px;&quot;&gt;&lt;i&gt;&lt;font face=&quot;Verdana&quot;&gt;|&lt;/font&gt;&lt;/i&gt;&lt;font face=&quot;Verdana&quot;&gt;&lt;i&gt;x&lt;/i&gt;&lt;/font&gt;&lt;font&gt;&lt;span class=&quot;mclose&quot;&gt;⟩&lt;/span&gt;&lt;/font&gt;&lt;font&gt;&lt;span class=&quot;mspace&quot;&gt;&lt;/span&gt;&lt;/font&gt;&lt;/font&gt;" style="text;html=1;align=center;verticalAlign=middle;whiteSpace=wrap;rounded=0;" vertex="1" parent="1">
          <mxGeometry x="130" y="710" width="30" height="20" as="geometry" />
        </mxCell>
        <mxCell id="3joSqUeFPJsV_tL1ElPJ-7" value="&lt;font style=&quot;font-size: 18px;&quot;&gt;&lt;i&gt;&lt;font face=&quot;Verdana&quot;&gt;|&lt;/font&gt;&lt;/i&gt;&lt;font face=&quot;Verdana&quot;&gt;&lt;i&gt;x&lt;/i&gt;&lt;/font&gt;&lt;font&gt;&lt;span class=&quot;mclose&quot;&gt;⟩&lt;/span&gt;&lt;/font&gt;&lt;font&gt;&lt;span class=&quot;mspace&quot;&gt;&lt;/span&gt;&lt;/font&gt;&lt;/font&gt;" style="text;html=1;align=center;verticalAlign=middle;whiteSpace=wrap;rounded=0;" vertex="1" parent="1">
          <mxGeometry x="240" y="710" width="30" height="20" as="geometry" />
        </mxCell>
        <mxCell id="3joSqUeFPJsV_tL1ElPJ-8" value="&lt;font style=&quot;font-size: 18px;&quot;&gt;&lt;i&gt;&lt;font face=&quot;Verdana&quot;&gt;|&lt;/font&gt;&lt;/i&gt;0&lt;font&gt;&lt;span class=&quot;mclose&quot;&gt;⟩&lt;/span&gt;&lt;/font&gt;&lt;font&gt;&lt;span class=&quot;mspace&quot;&gt;&lt;/span&gt;&lt;/font&gt;&lt;/font&gt;" style="text;html=1;align=center;verticalAlign=middle;whiteSpace=wrap;rounded=0;" vertex="1" parent="1">
          <mxGeometry x="130" y="670" width="30" height="20" as="geometry" />
        </mxCell>
        <mxCell id="3joSqUeFPJsV_tL1ElPJ-9" value="&lt;font style=&quot;font-size: 18px;&quot;&gt;&lt;i&gt;&lt;font face=&quot;Verdana&quot;&gt;|&lt;/font&gt;&lt;/i&gt;0&lt;font&gt;&lt;span class=&quot;mclose&quot;&gt;⟩&lt;/span&gt;&lt;/font&gt;&lt;font&gt;&lt;span class=&quot;mspace&quot;&gt;&lt;/span&gt;&lt;/font&gt;&lt;/font&gt;" style="text;html=1;align=center;verticalAlign=middle;whiteSpace=wrap;rounded=0;" vertex="1" parent="1">
          <mxGeometry x="240" y="670" width="30" height="20" as="geometry" />
        </mxCell>
        <mxCell id="3joSqUeFPJsV_tL1ElPJ-10" value="" style="endArrow=none;html=1;rounded=0;" edge="1" parent="1" source="3joSqUeFPJsV_tL1ElPJ-16">
          <mxGeometry width="50" height="50" relative="1" as="geometry">
            <mxPoint x="350" y="680" as="sourcePoint" />
            <mxPoint x="430" y="680" as="targetPoint" />
          </mxGeometry>
        </mxCell>
        <mxCell id="3joSqUeFPJsV_tL1ElPJ-11" value="" style="endArrow=none;html=1;rounded=0;" edge="1" parent="1">
          <mxGeometry width="50" height="50" relative="1" as="geometry">
            <mxPoint x="350" y="720" as="sourcePoint" />
            <mxPoint x="430" y="720" as="targetPoint" />
          </mxGeometry>
        </mxCell>
        <mxCell id="3joSqUeFPJsV_tL1ElPJ-12" value="&lt;font style=&quot;font-size: 18px;&quot;&gt;&lt;i&gt;&lt;font face=&quot;Verdana&quot;&gt;|&lt;/font&gt;&lt;/i&gt;&lt;font face=&quot;Verdana&quot;&gt;&lt;i&gt;x&lt;/i&gt;&lt;/font&gt;&lt;font&gt;&lt;span class=&quot;mclose&quot;&gt;⟩&lt;/span&gt;&lt;/font&gt;&lt;font&gt;&lt;span class=&quot;mspace&quot;&gt;&lt;/span&gt;&lt;/font&gt;&lt;/font&gt;" style="text;html=1;align=center;verticalAlign=middle;whiteSpace=wrap;rounded=0;" vertex="1" parent="1">
          <mxGeometry x="320" y="710" width="30" height="20" as="geometry" />
        </mxCell>
        <mxCell id="3joSqUeFPJsV_tL1ElPJ-13" value="&lt;font style=&quot;font-size: 18px;&quot;&gt;&lt;i&gt;&lt;font face=&quot;Verdana&quot;&gt;|&lt;/font&gt;&lt;/i&gt;&lt;font face=&quot;Verdana&quot;&gt;&lt;i&gt;x&lt;/i&gt;&lt;/font&gt;&lt;font&gt;&lt;span class=&quot;mclose&quot;&gt;⟩&lt;/span&gt;&lt;/font&gt;&lt;font&gt;&lt;span class=&quot;mspace&quot;&gt;&lt;/span&gt;&lt;/font&gt;&lt;/font&gt;" style="text;html=1;align=center;verticalAlign=middle;whiteSpace=wrap;rounded=0;" vertex="1" parent="1">
          <mxGeometry x="430" y="710" width="30" height="20" as="geometry" />
        </mxCell>
        <mxCell id="3joSqUeFPJsV_tL1ElPJ-14" value="&lt;font style=&quot;font-size: 18px;&quot;&gt;&lt;i&gt;&lt;font face=&quot;Verdana&quot;&gt;|&lt;/font&gt;&lt;/i&gt;0&lt;font&gt;&lt;span class=&quot;mclose&quot;&gt;⟩&lt;/span&gt;&lt;/font&gt;&lt;font&gt;&lt;span class=&quot;mspace&quot;&gt;&lt;/span&gt;&lt;/font&gt;&lt;/font&gt;" style="text;html=1;align=center;verticalAlign=middle;whiteSpace=wrap;rounded=0;" vertex="1" parent="1">
          <mxGeometry x="320" y="670" width="30" height="20" as="geometry" />
        </mxCell>
        <mxCell id="3joSqUeFPJsV_tL1ElPJ-15" value="&lt;font style=&quot;font-size: 18px;&quot;&gt;&lt;i&gt;&lt;font face=&quot;Verdana&quot;&gt;|&lt;/font&gt;&lt;/i&gt;1&lt;font&gt;&lt;span class=&quot;mclose&quot;&gt;⟩&lt;/span&gt;&lt;/font&gt;&lt;font&gt;&lt;span class=&quot;mspace&quot;&gt;&lt;/span&gt;&lt;/font&gt;&lt;/font&gt;" style="text;html=1;align=center;verticalAlign=middle;whiteSpace=wrap;rounded=0;" vertex="1" parent="1">
          <mxGeometry x="430" y="670" width="30" height="20" as="geometry" />
        </mxCell>
        <mxCell id="3joSqUeFPJsV_tL1ElPJ-17" value="" style="endArrow=none;html=1;rounded=0;" edge="1" parent="1" target="3joSqUeFPJsV_tL1ElPJ-16">
          <mxGeometry width="50" height="50" relative="1" as="geometry">
            <mxPoint x="350" y="680" as="sourcePoint" />
            <mxPoint x="430" y="680" as="targetPoint" />
          </mxGeometry>
        </mxCell>
        <mxCell id="3joSqUeFPJsV_tL1ElPJ-16" value="" style="shape=orEllipse;perimeter=ellipsePerimeter;whiteSpace=wrap;html=1;backgroundOutline=1;" vertex="1" parent="1">
          <mxGeometry x="380" y="670" width="20" height="20" as="geometry" />
        </mxCell>
        <mxCell id="3joSqUeFPJsV_tL1ElPJ-18" value="" style="endArrow=none;html=1;rounded=0;" edge="1" source="3joSqUeFPJsV_tL1ElPJ-25" parent="1">
          <mxGeometry width="50" height="50" relative="1" as="geometry">
            <mxPoint x="160" y="770" as="sourcePoint" />
            <mxPoint x="240" y="770" as="targetPoint" />
          </mxGeometry>
        </mxCell>
        <mxCell id="3joSqUeFPJsV_tL1ElPJ-19" value="" style="endArrow=none;html=1;rounded=0;" edge="1" parent="1" source="3joSqUeFPJsV_tL1ElPJ-27">
          <mxGeometry width="50" height="50" relative="1" as="geometry">
            <mxPoint x="160" y="810" as="sourcePoint" />
            <mxPoint x="240" y="810" as="targetPoint" />
          </mxGeometry>
        </mxCell>
        <mxCell id="3joSqUeFPJsV_tL1ElPJ-20" value="&lt;font style=&quot;font-size: 18px;&quot;&gt;&lt;i&gt;&lt;font face=&quot;Verdana&quot;&gt;|&lt;/font&gt;&lt;/i&gt;&lt;font face=&quot;Verdana&quot;&gt;&lt;i&gt;x&lt;/i&gt;&lt;/font&gt;&lt;font&gt;&lt;span class=&quot;mclose&quot;&gt;⟩&lt;/span&gt;&lt;/font&gt;&lt;font&gt;&lt;span class=&quot;mspace&quot;&gt;&lt;/span&gt;&lt;/font&gt;&lt;/font&gt;" style="text;html=1;align=center;verticalAlign=middle;whiteSpace=wrap;rounded=0;" vertex="1" parent="1">
          <mxGeometry x="130" y="800" width="30" height="20" as="geometry" />
        </mxCell>
        <mxCell id="3joSqUeFPJsV_tL1ElPJ-21" value="&lt;font style=&quot;font-size: 18px;&quot;&gt;&lt;i&gt;&lt;font face=&quot;Verdana&quot;&gt;|&lt;/font&gt;&lt;/i&gt;&lt;font face=&quot;Verdana&quot;&gt;&lt;i&gt;x&lt;/i&gt;&lt;/font&gt;&lt;font&gt;&lt;span class=&quot;mclose&quot;&gt;⟩&lt;/span&gt;&lt;/font&gt;&lt;font&gt;&lt;span class=&quot;mspace&quot;&gt;&lt;/span&gt;&lt;/font&gt;&lt;/font&gt;" style="text;html=1;align=center;verticalAlign=middle;whiteSpace=wrap;rounded=0;" vertex="1" parent="1">
          <mxGeometry x="240" y="800" width="30" height="20" as="geometry" />
        </mxCell>
        <mxCell id="3joSqUeFPJsV_tL1ElPJ-22" value="&lt;font style=&quot;font-size: 18px;&quot;&gt;&lt;i&gt;&lt;font face=&quot;Verdana&quot;&gt;|&lt;/font&gt;&lt;/i&gt;0&lt;font&gt;&lt;span class=&quot;mclose&quot;&gt;⟩&lt;/span&gt;&lt;/font&gt;&lt;font&gt;&lt;span class=&quot;mspace&quot;&gt;&lt;/span&gt;&lt;/font&gt;&lt;/font&gt;" style="text;html=1;align=center;verticalAlign=middle;whiteSpace=wrap;rounded=0;" vertex="1" parent="1">
          <mxGeometry x="130" y="760" width="30" height="20" as="geometry" />
        </mxCell>
        <mxCell id="3joSqUeFPJsV_tL1ElPJ-23" value="&lt;font style=&quot;font-size: 18px;&quot;&gt;&lt;i&gt;&lt;font face=&quot;Verdana&quot;&gt;|&lt;/font&gt;&lt;/i&gt;&lt;font face=&quot;Verdana&quot;&gt;&lt;i&gt;x&lt;/i&gt;&lt;/font&gt;&lt;font&gt;&lt;span class=&quot;mclose&quot;&gt;⟩&lt;/span&gt;&lt;/font&gt;&lt;font&gt;&lt;span class=&quot;mspace&quot;&gt;&lt;/span&gt;&lt;/font&gt;&lt;/font&gt;" style="text;html=1;align=center;verticalAlign=middle;whiteSpace=wrap;rounded=0;" vertex="1" parent="1">
          <mxGeometry x="240" y="760" width="30" height="20" as="geometry" />
        </mxCell>
        <mxCell id="3joSqUeFPJsV_tL1ElPJ-24" value="" style="endArrow=none;html=1;rounded=0;" edge="1" target="3joSqUeFPJsV_tL1ElPJ-25" parent="1">
          <mxGeometry width="50" height="50" relative="1" as="geometry">
            <mxPoint x="160" y="770" as="sourcePoint" />
            <mxPoint x="240" y="770" as="targetPoint" />
          </mxGeometry>
        </mxCell>
        <mxCell id="3joSqUeFPJsV_tL1ElPJ-25" value="" style="shape=orEllipse;perimeter=ellipsePerimeter;whiteSpace=wrap;html=1;backgroundOutline=1;" vertex="1" parent="1">
          <mxGeometry x="190" y="760" width="20" height="20" as="geometry" />
        </mxCell>
        <mxCell id="3joSqUeFPJsV_tL1ElPJ-26" value="" style="endArrow=none;html=1;rounded=0;" edge="1" parent="1" target="3joSqUeFPJsV_tL1ElPJ-27">
          <mxGeometry width="50" height="50" relative="1" as="geometry">
            <mxPoint x="160" y="810" as="sourcePoint" />
            <mxPoint x="240" y="810" as="targetPoint" />
          </mxGeometry>
        </mxCell>
        <mxCell id="3joSqUeFPJsV_tL1ElPJ-28" style="edgeStyle=orthogonalEdgeStyle;rounded=0;orthogonalLoop=1;jettySize=auto;html=1;entryX=0.5;entryY=1;entryDx=0;entryDy=0;strokeColor=default;endArrow=none;endFill=0;" edge="1" parent="1" source="3joSqUeFPJsV_tL1ElPJ-27" target="3joSqUeFPJsV_tL1ElPJ-25">
          <mxGeometry relative="1" as="geometry" />
        </mxCell>
        <mxCell id="3joSqUeFPJsV_tL1ElPJ-27" value="" style="shape=waypoint;sketch=0;fillStyle=solid;size=6;pointerEvents=1;points=[];fillColor=none;resizable=0;rotatable=0;perimeter=centerPerimeter;snapToPoint=1;" vertex="1" parent="1">
          <mxGeometry x="190" y="800" width="20" height="20" as="geometry" />
        </mxCell>
        <mxCell id="3joSqUeFPJsV_tL1ElPJ-29" value="" style="endArrow=none;html=1;rounded=0;" edge="1" source="3joSqUeFPJsV_tL1ElPJ-40" parent="1">
          <mxGeometry width="50" height="50" relative="1" as="geometry">
            <mxPoint x="350" y="770" as="sourcePoint" />
            <mxPoint x="430" y="770" as="targetPoint" />
          </mxGeometry>
        </mxCell>
        <mxCell id="3joSqUeFPJsV_tL1ElPJ-30" value="" style="endArrow=none;html=1;rounded=0;" edge="1" source="3joSqUeFPJsV_tL1ElPJ-39" parent="1">
          <mxGeometry width="50" height="50" relative="1" as="geometry">
            <mxPoint x="350" y="810" as="sourcePoint" />
            <mxPoint x="430" y="810" as="targetPoint" />
          </mxGeometry>
        </mxCell>
        <mxCell id="3joSqUeFPJsV_tL1ElPJ-31" value="&lt;font style=&quot;font-size: 18px;&quot;&gt;&lt;i&gt;&lt;font face=&quot;Verdana&quot;&gt;|&lt;/font&gt;&lt;/i&gt;&lt;font face=&quot;Verdana&quot;&gt;&lt;i&gt;x&lt;/i&gt;&lt;/font&gt;&lt;font&gt;&lt;span class=&quot;mclose&quot;&gt;⟩&lt;/span&gt;&lt;/font&gt;&lt;font&gt;&lt;span class=&quot;mspace&quot;&gt;&lt;/span&gt;&lt;/font&gt;&lt;/font&gt;" style="text;html=1;align=center;verticalAlign=middle;whiteSpace=wrap;rounded=0;" vertex="1" parent="1">
          <mxGeometry x="320" y="800" width="30" height="20" as="geometry" />
        </mxCell>
        <mxCell id="3joSqUeFPJsV_tL1ElPJ-32" value="&lt;font style=&quot;font-size: 18px;&quot;&gt;&lt;i&gt;&lt;font face=&quot;Verdana&quot;&gt;|&lt;/font&gt;&lt;/i&gt;&lt;font face=&quot;Verdana&quot;&gt;&lt;i&gt;x&lt;/i&gt;&lt;/font&gt;&lt;font&gt;&lt;span class=&quot;mclose&quot;&gt;⟩&lt;/span&gt;&lt;/font&gt;&lt;font&gt;&lt;span class=&quot;mspace&quot;&gt;&lt;/span&gt;&lt;/font&gt;&lt;/font&gt;" style="text;html=1;align=center;verticalAlign=middle;whiteSpace=wrap;rounded=0;" vertex="1" parent="1">
          <mxGeometry x="430" y="800" width="30" height="20" as="geometry" />
        </mxCell>
        <mxCell id="3joSqUeFPJsV_tL1ElPJ-33" value="&lt;font style=&quot;font-size: 18px;&quot;&gt;&lt;i&gt;&lt;font face=&quot;Verdana&quot;&gt;|&lt;/font&gt;&lt;/i&gt;0&lt;font&gt;&lt;span class=&quot;mclose&quot;&gt;⟩&lt;/span&gt;&lt;/font&gt;&lt;font&gt;&lt;span class=&quot;mspace&quot;&gt;&lt;/span&gt;&lt;/font&gt;&lt;/font&gt;" style="text;html=1;align=center;verticalAlign=middle;whiteSpace=wrap;rounded=0;" vertex="1" parent="1">
          <mxGeometry x="320" y="760" width="30" height="20" as="geometry" />
        </mxCell>
        <mxCell id="3joSqUeFPJsV_tL1ElPJ-34" value="&lt;span lang=&quot;en&quot; class=&quot;NA6bn BxUVEf ILfuVd&quot;&gt;&lt;span class=&quot;hgKElc&quot;&gt;&lt;span&gt;&lt;span&gt;&lt;b&gt;¬&lt;/b&gt;&lt;/span&gt;&lt;/span&gt;&lt;/span&gt;&lt;/span&gt;&lt;font style=&quot;font-size: 18px;&quot;&gt;&lt;i&gt;&lt;font face=&quot;Verdana&quot;&gt;|&lt;/font&gt;&lt;/i&gt;&lt;/font&gt;&lt;font style=&quot;font-size: 18px;&quot;&gt;&lt;font face=&quot;Verdana&quot;&gt;&lt;i&gt;x&lt;/i&gt;&lt;/font&gt;&lt;font&gt;&lt;span class=&quot;mclose&quot;&gt;⟩&lt;/span&gt;&lt;/font&gt;&lt;font&gt;&lt;span class=&quot;mspace&quot;&gt;&lt;/span&gt;&lt;/font&gt;&lt;/font&gt;" style="text;html=1;align=center;verticalAlign=middle;whiteSpace=wrap;rounded=0;" vertex="1" parent="1">
          <mxGeometry x="430" y="760" width="40" height="20" as="geometry" />
        </mxCell>
        <mxCell id="3joSqUeFPJsV_tL1ElPJ-35" value="" style="endArrow=none;html=1;rounded=0;" edge="1" target="3joSqUeFPJsV_tL1ElPJ-36" parent="1">
          <mxGeometry width="50" height="50" relative="1" as="geometry">
            <mxPoint x="350" y="770" as="sourcePoint" />
            <mxPoint x="430" y="770" as="targetPoint" />
          </mxGeometry>
        </mxCell>
        <mxCell id="3joSqUeFPJsV_tL1ElPJ-36" value="" style="shape=orEllipse;perimeter=ellipsePerimeter;whiteSpace=wrap;html=1;backgroundOutline=1;" vertex="1" parent="1">
          <mxGeometry x="360" y="760" width="20" height="20" as="geometry" />
        </mxCell>
        <mxCell id="3joSqUeFPJsV_tL1ElPJ-37" value="" style="endArrow=none;html=1;rounded=0;" edge="1" target="3joSqUeFPJsV_tL1ElPJ-39" parent="1">
          <mxGeometry width="50" height="50" relative="1" as="geometry">
            <mxPoint x="350" y="810" as="sourcePoint" />
            <mxPoint x="430" y="810" as="targetPoint" />
          </mxGeometry>
        </mxCell>
        <mxCell id="3joSqUeFPJsV_tL1ElPJ-38" style="edgeStyle=orthogonalEdgeStyle;rounded=0;orthogonalLoop=1;jettySize=auto;html=1;entryX=0.5;entryY=1;entryDx=0;entryDy=0;strokeColor=default;endArrow=none;endFill=0;" edge="1" source="3joSqUeFPJsV_tL1ElPJ-39" target="3joSqUeFPJsV_tL1ElPJ-36" parent="1">
          <mxGeometry relative="1" as="geometry" />
        </mxCell>
        <mxCell id="3joSqUeFPJsV_tL1ElPJ-39" value="" style="shape=waypoint;sketch=0;fillStyle=solid;size=6;pointerEvents=1;points=[];fillColor=none;resizable=0;rotatable=0;perimeter=centerPerimeter;snapToPoint=1;" vertex="1" parent="1">
          <mxGeometry x="360" y="800" width="20" height="20" as="geometry" />
        </mxCell>
        <mxCell id="3joSqUeFPJsV_tL1ElPJ-41" value="" style="endArrow=none;html=1;rounded=0;" edge="1" parent="1" source="3joSqUeFPJsV_tL1ElPJ-36" target="3joSqUeFPJsV_tL1ElPJ-40">
          <mxGeometry width="50" height="50" relative="1" as="geometry">
            <mxPoint x="380" y="770" as="sourcePoint" />
            <mxPoint x="430" y="770" as="targetPoint" />
          </mxGeometry>
        </mxCell>
        <mxCell id="3joSqUeFPJsV_tL1ElPJ-40" value="" style="shape=orEllipse;perimeter=ellipsePerimeter;whiteSpace=wrap;html=1;backgroundOutline=1;" vertex="1" parent="1">
          <mxGeometry x="400" y="760" width="20" height="20" as="geometry" />
        </mxCell>
      </root>
    </mxGraphModel>
  </diagram>
</mxfile>
